<?xml version="1.0" encoding="UTF-8" standalone="no"?>
<svg
   xmlns:dc="http://purl.org/dc/elements/1.1/"
   xmlns:cc="http://creativecommons.org/ns#"
   xmlns:rdf="http://www.w3.org/1999/02/22-rdf-syntax-ns#"
   xmlns:svg="http://www.w3.org/2000/svg"
   xmlns="http://www.w3.org/2000/svg"
   xmlns:sodipodi="http://sodipodi.sourceforge.net/DTD/sodipodi-0.dtd"
   xmlns:inkscape="http://www.inkscape.org/namespaces/inkscape"
   viewBox="0 0 16 16"
   height="16"
   width="16"
   fill="context-stroke"
   fill-opacity="context-fill-opacity"
   version="1.1"
   id="svg8"
   sodipodi:docname="button.svg"
   inkscape:version="1.0.2 (e86c870879, 2021-01-15, custom)">
  <metadata
     id="metadata14">
    <rdf:RDF>
      <cc:Work
         rdf:about="">
        <dc:format>image/svg+xml</dc:format>
        <dc:type
           rdf:resource="http://purl.org/dc/dcmitype/StillImage" />
        <dc:title></dc:title>
      </cc:Work>
    </rdf:RDF>
  </metadata>
  <defs
     id="defs12" />
  <sodipodi:namedview
     pagecolor="#ffffff"
     bordercolor="#666666"
     borderopacity="1"
     objecttolerance="10"
     gridtolerance="10"
     guidetolerance="10"
     inkscape:pageopacity="0"
     inkscape:pageshadow="2"
     inkscape:window-width="1920"
     inkscape:window-height="1137"
     id="namedview10"
     showgrid="false"
     inkscape:zoom="60.625"
     inkscape:cx="8"
     inkscape:cy="7.359485"
     inkscape:window-x="-8"
     inkscape:window-y="-8"
     inkscape:window-maximized="1"
     inkscape:current-layer="svg8" />
  <g
     id="g6"
     transform="matrix(0.58333333,0,0,0.58333333,1,1)">
    <path
       id="path7224"
       d="M 12,0 C 5.373,0 0,5.373 0,12 0,18.627 5.373,24 12,24 18.627,24 24,18.627 24,12 24,5.373 18.627,0 12,0 m 0,22 C 6.486,22 2,17.514 2,12 2,6.486 6.486,2 12,2 c 5.514,0 10,4.486 10,10 0,5.514 -4.486,10 -10,10"
       inkscape:connector-curvature="0" />
    <path
       id="path7226"
       d="M 8,7 C 6.895,7 6,7.895 6,9 c 0,1.105 0.895,2 2,2 1.105,0 2,-0.895 2,-2 C 10,7.895 9.105,7 8,7"
       inkscape:connector-curvature="0" />
    <path
       id="path7228"
       d="m 16,7 c -1.105,0 -2,0.895 -2,2 0,1.105 0.895,2 2,2 1.105,0 2,-0.895 2,-2 0,-1.105 -0.895,-2 -2,-2"
       inkscape:connector-curvature="0" />
    <path
       id="path7230"
       d="m 15.232,15 c -0.693,1.195 -1.87,2 -3.349,2 -1.477,0 -2.655,-0.805 -3.347,-2 H 15 m 3,-2 H 6 c 0,3.314 2.686,6 6,6 3.314,0 6,-2.686 6,-6"
       inkscape:connector-curvature="0" />
  </g>
</svg>
