<?xml version="1.0" encoding="UTF-8" standalone="no"?>
<svg
   xmlns:dc="http://purl.org/dc/elements/1.1/"
   xmlns:cc="http://creativecommons.org/ns#"
   xmlns:rdf="http://www.w3.org/1999/02/22-rdf-syntax-ns#"
   xmlns:svg="http://www.w3.org/2000/svg"
   xmlns="http://www.w3.org/2000/svg"
   xmlns:sodipodi="http://sodipodi.sourceforge.net/DTD/sodipodi-0.dtd"
   xmlns:inkscape="http://www.inkscape.org/namespaces/inkscape"
   xml:space="preserve"
   viewBox="0 0 16 16"
   height="16"
   width="16"
   y="0px"
   x="0px"
   id="Слой_1"
   version="1.1"
   inkscape:version="0.91 r13725"
   sodipodi:docname="people.svg"><sodipodi:namedview
     pagecolor="#ffffff"
     bordercolor="#666666"
     borderopacity="1"
     objecttolerance="10"
     gridtolerance="10"
     guidetolerance="10"
     inkscape:pageopacity="0"
     inkscape:pageshadow="2"
     inkscape:window-width="1920"
     inkscape:window-height="1137"
     id="namedview3365"
     showgrid="false"
     inkscape:zoom="9.8333333"
     inkscape:cx="11.881356"
     inkscape:cy="6.9999999"
     inkscape:window-x="1912"
     inkscape:window-y="-8"
     inkscape:window-maximized="1"
     inkscape:current-layer="Слой_1"
     fit-margin-top="0"
     fit-margin-left="0"
     fit-margin-right="0"
     fit-margin-bottom="0" /><metadata
     id="metadata7236"><rdf:RDF><cc:Work
         rdf:about=""><dc:format>image/svg+xml</dc:format><dc:type
           rdf:resource="http://purl.org/dc/dcmitype/StillImage" /><dc:title></dc:title></cc:Work></rdf:RDF></metadata><defs
     id="defs7234" /><g
     id="g7222"
     transform="matrix(0.58333333,0,0,0.58333333,1,1)"><path
       fill="#5b5b66" fill-opacity="context-fill-opacity"
       id="path7224"
       d="M 12,0 C 5.373,0 0,5.373 0,12 0,18.627 5.373,24 12,24 18.627,24 24,18.627 24,12 24,5.373 18.627,0 12,0 m 0,22 C 6.486,22 2,17.514 2,12 2,6.486 6.486,2 12,2 c 5.514,0 10,4.486 10,10 0,5.514 -4.486,10 -10,10"
       inkscape:connector-curvature="0" /><path
       fill="#5b5b66" fill-opacity="context-fill-opacity"
       id="path7226"
       d="M 8,7 C 6.895,7 6,7.895 6,9 c 0,1.105 0.895,2 2,2 1.105,0 2,-0.895 2,-2 C 10,7.895 9.105,7 8,7"
       inkscape:connector-curvature="0" /><path
       fill="#5b5b66" fill-opacity="context-fill-opacity"
       id="path7228"
       d="m 16,7 c -1.105,0 -2,0.895 -2,2 0,1.105 0.895,2 2,2 1.105,0 2,-0.895 2,-2 0,-1.105 -0.895,-2 -2,-2"
       inkscape:connector-curvature="0" /><path
       fill="#5b5b66" fill-opacity="context-fill-opacity"
       id="path7230"
       d="m 15.232,15 c -0.693,1.195 -1.87,2 -3.349,2 -1.477,0 -2.655,-0.805 -3.347,-2 L 15,15 m 3,-2 -12,0 c 0,3.314 2.686,6 6,6 3.314,0 6,-2.686 6,-6"
       inkscape:connector-curvature="0" /></g></svg>